<svg width="66" height="34" viewBox="0 0 66 34" fill="none" xmlns="http://www.w3.org/2000/svg">
<path fill-rule="evenodd" clip-rule="evenodd" d="M28.5018 4.80664H24.3044V33.2409H28.5018V22.3073L30.262 33.2409H35.2719L31.9207 18.8884L35.0688 4.80664H30.262L28.5018 15.6726V4.80664ZM17.5683 4.87432H13.1339L13.0662 33.2409H21.0887V28.7049H17.5683V4.87432ZM0 33.1727V4.83995H5.14525C8.61152 4.73163 9.72633 7.16434 9.85044 8.39423V15.8752C9.87752 17.6354 8.77852 18.4591 8.22563 18.6509C8.06766 18.6847 7.84651 18.7795 8.22563 18.8878C9.79628 19.2128 10.0535 21.1445 9.98585 22.0698V28.7044C10.1212 32.4686 6.99573 33.2517 5.41605 33.1727H0ZM4.68939 9.20716H4.13086V17.1958H4.68939C5.16611 17.1958 5.55257 16.8094 5.55257 16.3327V10.0703C5.55257 9.59362 5.16611 9.20716 4.68939 9.20716ZM4.68915 20.6487H4.13062V28.6374H4.68915C5.16587 28.6374 5.55234 28.2509 5.55234 27.7742V21.5119C5.55234 21.0352 5.16588 20.6487 4.68915 20.6487Z" fill="black"/>
<path fill-rule="evenodd" clip-rule="evenodd" d="M53.7339 27.5078C53.8331 27.4972 53.8786 27.6422 53.7884 27.6848C49.816 29.5597 42.5234 32.8829 41.2108 33.013C41.1985 33.0142 41.19 33.0171 41.1789 33.0225C40.826 33.1967 38.8217 33.5853 38.6218 31.1527C38.4188 28.6832 38.3511 12.7247 40.2092 9.59603C40.2118 9.5917 40.2137 9.58769 40.2154 9.58298C40.2348 9.53097 40.2599 9.45012 40.2928 9.34406C40.7333 7.92649 42.5733 2.00533 50.6725 0.247346C53.109 -0.361774 59.0638 -0.226641 63.3963 5.18455C63.3989 5.18779 63.4013 5.19129 63.4034 5.19488C63.4733 5.31405 63.5509 5.4429 63.6343 5.58136C64.9266 7.72753 67.6094 12.183 64.6866 18.6958C64.3821 19.643 62.1844 23.3963 59.0056 24.7187C59.0017 24.7203 58.998 24.7215 58.9939 24.7226C58.2284 24.9126 55.6794 25.297 54.4976 25.4658C51.7783 25.9849 45.9538 25.6486 44.4102 20.1513C44.2071 18.8312 42.887 10.1994 51.8234 9.59004C53.3806 9.59004 56.4948 9.62387 58.4581 12.7043C60.4134 15.7721 59.3805 19.7465 58.6699 20.1466C58.6638 20.15 58.6591 20.1532 58.6538 20.1579C58.3343 20.4369 56.9026 21.3849 56.3962 19.4855C56.3943 19.4784 56.3932 19.4706 56.3932 19.4631V13.1629C56.3932 13.1153 56.3546 13.0766 56.3069 13.0766H54.11C54.0624 13.0766 54.0237 13.1153 54.0237 13.1629V14.3781C54.0237 14.4258 53.9851 14.4645 53.9374 14.4645H53.9083C53.8753 14.4645 53.8456 14.4461 53.8305 14.4169C52.9818 12.7776 49.8719 11.3444 47.5922 14.9384C46.9948 16.1218 46.3209 19.1088 48.3975 21.5985C48.4021 21.604 48.407 21.6087 48.4129 21.6129C49.2656 22.2247 52.108 23.9504 53.9976 20.9046C54.0135 20.879 54.0431 20.8642 54.0666 20.883C54.1122 20.9196 54.1775 21.0024 54.2649 21.1133C54.802 21.7946 56.1768 23.5385 58.9997 22.1823C62.4524 20.5237 61.877 15.4123 61.4031 13.9567C60.9292 12.5011 58.9659 7.6944 52.602 7.6267C47.5239 7.57268 44.9425 9.93897 44.2799 11.138C44.2764 11.1443 44.2726 11.1495 44.2677 11.1548C43.127 12.3807 41.1631 15.9635 42.3792 20.5575C43.8358 26.0603 49.3473 27.9726 53.7339 27.5078ZM51.7898 20.49C52.9676 20.49 53.9224 19.2473 53.9224 17.7143C53.9224 16.1813 52.9676 14.9386 51.7898 14.9386C50.612 14.9386 49.6573 16.1813 49.6573 17.7143C49.6573 19.2473 50.612 20.49 51.7898 20.49Z" fill="#EB1D25"/>
</svg>
